<?xml version="1.0" encoding="UTF-8"?>
<svg xmlns="http://www.w3.org/2000/svg" xmlns:xlink="http://www.w3.org/1999/xlink" width="14px" height="14px" viewBox="0 0 14 14" version="1.1">
    <g id="surface1" >
        <path style="stroke:none;fill-rule:nonzero;fill-opacity:1;"
fill="darkgreen"
d="M 11.433594 12.25 L 7.757812 8.574219 C 7.464844 8.808594 7.132812 8.992188 6.753906 9.128906 C 6.371094 9.265625 5.96875 9.332031 5.542969 9.332031 C 4.480469 9.332031 3.585938 8.964844 2.851562 8.230469 C 2.117188 7.5 1.75 6.601562 1.75 5.542969 C 1.75 4.480469 2.117188 3.585938 2.851562 2.851562 C 3.585938 2.117188 4.480469 1.75 5.542969 1.75 C 6.601562 1.75 7.5 2.117188 8.230469 2.851562 C 8.964844 3.585938 9.332031 4.480469 9.332031 5.542969 C 9.332031 5.96875 9.265625 6.371094 9.128906 6.753906 C 8.992188 7.132812 8.808594 7.464844 8.574219 7.757812 L 12.25 11.433594 Z M 5.542969 8.167969 C 6.269531 8.167969 6.890625 7.910156 7.402344 7.402344 C 7.910156 6.890625 8.167969 6.269531 8.167969 5.542969 C 8.167969 4.8125 7.910156 4.191406 7.402344 3.683594 C 6.890625 3.171875 6.269531 2.917969 5.542969 2.917969 C 4.8125 2.917969 4.191406 3.171875 3.683594 3.683594 C 3.171875 4.191406 2.917969 4.8125 2.917969 5.542969 C 2.917969 6.269531 3.171875 6.890625 3.683594 7.402344 C 4.191406 7.910156 4.8125 8.167969 5.542969 8.167969 Z M 5.542969 8.167969 "/>
    </g>
</svg>