<?xml version="1.0" encoding="UTF-8"?>
<svg xmlns="http://www.w3.org/2000/svg" xmlns:xlink="http://www.w3.org/1999/xlink"
    width="16px" height="16px" viewBox="0 0 16 16" version="1.1">
    <g id="surface1">
        <path style=" stroke:none;fill-rule:nonzero;fill:green;fill-opacity:1;" d="M 13.066406 14 L 8.867188 9.800781 C 8.535156 10.066406 8.148438 10.277344 7.714844 10.433594 C 7.285156 10.589844 6.820312 10.667969 6.332031 10.667969 C 5.121094 10.667969 4.097656 10.246094 3.257812 9.410156 C 2.417969 8.570312 2 7.542969 2 6.332031 C 2 5.121094 2.417969 4.097656 3.257812 3.257812 C 4.097656 2.417969 5.121094 2 6.332031 2 C 7.542969 2 8.570312 2.417969 9.410156 3.257812 C 10.246094 4.097656 10.667969 5.121094 10.667969 6.332031 C 10.667969 6.820312 10.589844 7.285156 10.433594 7.714844 C 10.277344 8.148438 10.066406 8.535156 9.800781 8.867188 L 14 13.066406 Z M 6.332031 9.332031 C 7.167969 9.332031 7.875 9.042969 8.457031 8.457031 C 9.042969 7.875 9.332031 7.167969 9.332031 6.332031 C 9.332031 5.5 9.042969 4.792969 8.457031 4.207031 C 7.875 3.625 7.167969 3.332031 6.332031 3.332031 C 5.5 3.332031 4.792969 3.625 4.207031 4.207031 C 3.625 4.792969 3.332031 5.5 3.332031 6.332031 C 3.332031 7.167969 3.625 7.875 4.207031 8.457031 C 4.792969 9.042969 5.5 9.332031 6.332031 9.332031 Z M 6.332031 9.332031 "/>
    </g>
</svg>